<svg fill="currentColor" viewBox="0 0 18 20" xmlns="http://www.w3.org/2000/svg">
  <g id="html-shape">
    <path d="M14.4350881,6 L14.4279481,6 L5.8119794,6 L6.0180201,8 L14.2300674,8 C14.109707,9.752 13.7455658,13.464 13.6119454,15.153 L8.99949,16.451 L8.99949,16.455 L8.98929,16.46 L4.37377458,14.836 L4.05757353,11 L6.3199411,11 L6.4800816,13.063 L8.99337,14 L8.99949,14 L11.5086984,13.1 L11.7667592,10 L3.95659319,10 C3.91885306,9.599 3.43333144,4.392 3.34867116,4 L14.6370488,4 C14.5738086,4.66 14.5095484,5.338 14.4350881,6 L14.4350881,6 Z M0,0 L1.63812546,18.148 L8.98929,20 L16.3598345,18.111 L18,0 L0,0 Z"/>
  </g>
</svg>